<svg width="138" height="32" viewBox="0 0 138 32" fill="none" xmlns="http://www.w3.org/2000/svg">
    <g clip-path="url(#clip0_204_232)">
        <path d="M28.3144 11.9998C28.3144 5.23246 22.6654 0.0996094 15.4106 0.0996094C7.2955 0.0996094 0.81488 6.95303 0.81488 15.4409C0.81488 24.5883 8.09836 31.9004 17.9053 31.9004C27.7123 31.9004 36.4869 24.1294 37.1752 13.9497H32.7018C31.8701 21.5773 25.4182 27.4271 17.9053 27.4271C10.6792 27.4271 5.31688 22.1222 5.31688 15.4409C5.31688 9.41907 9.79022 4.57294 15.4106 4.57294C20.1133 4.57294 23.8124 7.78456 23.8124 11.9998C23.8124 15.4982 21.289 18.4231 17.934 18.4231V22.8964C23.8698 22.8964 28.3144 17.9356 28.3144 11.9998Z" fill="#2BD7B0"/>
        <path d="M95.4964 22.5118L100.615 9.77699H98.1552L95.1523 17.5554L92.0954 9.77699H89.5627L93.9404 20.6124L93.4702 21.7883C93.0721 22.747 92.4026 23.2354 91.3901 23.2354C90.9193 23.2354 90.431 23.1811 89.9789 23.0364V25.1709C90.4673 25.2976 90.992 25.3699 91.4986 25.3699C93.0721 25.3518 94.6821 24.5016 95.4964 22.5118ZM83.7312 20.5401V14.643C83.7312 12.816 85.106 11.6402 86.9147 11.6402C87.3491 11.6402 87.8012 11.7125 88.2174 11.8392V9.74081C87.8012 9.63229 87.3849 9.55994 86.951 9.55994C85.4496 9.55994 84.1651 10.3559 83.6046 11.6945V9.77699H81.3978V20.5401H83.7312ZM74.5851 11.2603C76.0865 11.2603 77.5153 12.2009 77.6964 13.9556H71.2744C71.6543 12.3999 72.9025 11.2603 74.5851 11.2603ZM74.6935 18.9121C72.7219 18.9121 71.401 17.6096 71.2568 15.7645H79.7947V14.8601C79.7947 11.7306 77.6964 9.46948 74.5851 9.46948C71.5277 9.46948 69.0495 11.7668 69.0495 15.1495C69.0495 18.5322 71.4374 20.8295 74.6572 20.8295C77.6238 20.8295 79.1797 18.9121 79.7226 17.0308H77.4432C76.9366 18.2789 76.0684 18.9302 74.6935 18.9121ZM68.5793 9.77699H66.2277L63.1885 17.8267L60.1861 9.77699H57.7619L62.1033 20.5401H64.2379L68.5793 9.77699ZM52.0638 11.2603C53.5652 11.2603 54.9943 12.2009 55.1752 13.9556H48.7535C49.1334 12.418 50.3996 11.2603 52.0638 11.2603ZM52.1724 18.9301C50.2007 18.9301 48.8802 17.6277 48.7354 15.7826H57.2736V14.8782C57.2736 11.7487 55.1752 9.4876 52.0638 9.4876C49.0068 9.4876 46.5286 11.7849 46.5286 15.1676C46.5286 18.5503 48.9164 20.8476 52.1362 20.8476C55.1029 20.8476 56.6585 18.9302 57.2012 17.0489H54.9401C54.4335 18.2789 53.5652 18.9301 52.1724 18.9301Z" fill="white"/>
        <path d="M101.212 20.6487C102.061 20.6487 102.75 19.9603 102.75 19.1111C102.75 18.2619 102.061 17.5735 101.212 17.5735C100.363 17.5735 99.6742 18.2619 99.6742 19.1111C99.6742 19.9603 100.363 20.6487 101.212 20.6487Z" fill="#2BD7B0"/>
        <path d="M131.403 11.5135C133.248 11.5135 134.749 12.9969 134.749 15.1676C134.749 17.3383 133.248 18.8216 131.403 18.8216C129.558 18.8216 128.056 17.3383 128.056 15.1676C128.056 12.9969 129.558 11.5135 131.403 11.5135ZM134.605 19.925C134.605 22.0596 133.284 23.2354 131.331 23.2354C130.372 23.2354 129.051 23.0183 127.514 22.0234V24.4474C128.49 25.0081 129.992 25.3518 131.331 25.3518C133.954 25.3518 136.83 23.9951 136.83 19.9069V9.77699H134.605V11.4231C134.08 10.3197 132.76 9.46948 131.041 9.46948C128.292 9.46948 125.813 11.6221 125.813 15.1495C125.813 18.6046 128.238 20.8295 131.023 20.8295C132.687 20.8295 133.936 20.0878 134.605 18.8939V19.925ZM120.369 20.5401V14.643C120.369 12.816 121.743 11.6402 123.552 11.6402C123.987 11.6402 124.439 11.7125 124.855 11.8392V9.74081C124.439 9.63229 124.022 9.55994 123.588 9.55994C122.087 9.55994 120.802 10.3559 120.242 11.6945V9.77699H118.035V20.5401H120.369ZM110.148 18.8035C108.267 18.8035 106.657 17.3564 106.657 15.1495C106.657 12.9426 108.267 11.4955 110.148 11.4955C112.029 11.4955 113.639 12.9426 113.639 15.1495C113.639 17.3564 112.029 18.8035 110.148 18.8035ZM115.901 15.1676C115.901 11.4593 112.988 9.4876 110.148 9.4876C107.308 9.4876 104.396 11.4412 104.396 15.1676C104.396 18.9302 107.308 20.8476 110.148 20.8476C112.988 20.8476 115.901 18.9121 115.901 15.1676Z" fill="#2BD7B0"/>
    </g>
    <defs>
        <clipPath id="clip0_204_232">
            <rect width="136.857" height="32" fill="white" transform="translate(0.571472)"/>
        </clipPath>
    </defs>
</svg>
