<svg width="89" height="32" viewBox="0 0 89 32" fill="none" xmlns="http://www.w3.org/2000/svg">
<path d="M76.3078 28C68.9816 28 63.6155 22.9508 63.6155 16C63.6155 9.04918 68.9816 4 76.3078 4C83.634 4 89.0001 9.04918 89.0001 16C89.0001 22.9508 83.634 28 76.3078 28ZM76.3078 21.7377C79.1033 21.7377 81.3526 19.5738 81.3526 16C81.3526 12.4262 79.1033 10.2623 76.3078 10.2623C73.5123 10.2623 71.263 12.4262 71.263 16C71.263 19.5738 73.5123 21.7377 76.3078 21.7377Z" fill="white"/>
<g filter="url(#filter0_d_154_1130)">
<path d="M62.2614 28L56.3383 20.0457L54.5444 22.0686V28H46.6921V4H54.5444V12.7086L62.3291 4H71.0275L61.5506 14.56L71.5014 28H62.2614Z" fill="white"/>
</g>
<g filter="url(#filter1_d_154_1130)">
<path d="M35.2693 28C28.067 28 23.8462 23.9441 23.8462 16.905V4H31.7519V16.6704C31.7519 20.257 33.1253 21.5978 35.3363 21.5978C37.5472 21.5978 38.9206 20.257 38.9206 16.6704V4H46.6923V16.905C46.6923 23.9441 42.4715 28 35.2693 28Z" fill="white"/>
</g>
<g filter="url(#filter2_d_154_1130)">
<path d="M1 28V4H12.6769C20.5969 4 26.0461 8.56 26.0461 16C26.0461 23.44 20.5969 28 12.6769 28H1ZM8.98769 21.6914H12.3385C15.6892 21.6914 17.9908 19.6686 17.9908 16C17.9908 12.3314 15.6892 10.3086 12.3385 10.3086H8.98769V21.6914Z" fill="white"/>
</g>
<defs>
<filter id="filter0_d_154_1130" x="45.6921" y="0" width="32.8093" height="32" filterUnits="userSpaceOnUse" color-interpolation-filters="sRGB">
<feFlood flood-opacity="0" result="BackgroundImageFix"/>
<feColorMatrix in="SourceAlpha" type="matrix" values="0 0 0 0 0 0 0 0 0 0 0 0 0 0 0 0 0 0 127 0" result="hardAlpha"/>
<feOffset dx="3"/>
<feGaussianBlur stdDeviation="2"/>
<feComposite in2="hardAlpha" operator="out"/>
<feColorMatrix type="matrix" values="0 0 0 0 0.00283333 0 0 0 0 0 0 0 0 0 0.141667 0 0 0 0.12 0"/>
<feBlend mode="normal" in2="BackgroundImageFix" result="effect1_dropShadow_154_1130"/>
<feBlend mode="normal" in="SourceGraphic" in2="effect1_dropShadow_154_1130" result="shape"/>
</filter>
<filter id="filter1_d_154_1130" x="22.8462" y="0" width="30.8462" height="32" filterUnits="userSpaceOnUse" color-interpolation-filters="sRGB">
<feFlood flood-opacity="0" result="BackgroundImageFix"/>
<feColorMatrix in="SourceAlpha" type="matrix" values="0 0 0 0 0 0 0 0 0 0 0 0 0 0 0 0 0 0 127 0" result="hardAlpha"/>
<feOffset dx="3"/>
<feGaussianBlur stdDeviation="2"/>
<feComposite in2="hardAlpha" operator="out"/>
<feColorMatrix type="matrix" values="0 0 0 0 0.00283333 0 0 0 0 0 0 0 0 0 0.141667 0 0 0 0.12 0"/>
<feBlend mode="normal" in2="BackgroundImageFix" result="effect1_dropShadow_154_1130"/>
<feBlend mode="normal" in="SourceGraphic" in2="effect1_dropShadow_154_1130" result="shape"/>
</filter>
<filter id="filter2_d_154_1130" x="0" y="0" width="33.0461" height="32" filterUnits="userSpaceOnUse" color-interpolation-filters="sRGB">
<feFlood flood-opacity="0" result="BackgroundImageFix"/>
<feColorMatrix in="SourceAlpha" type="matrix" values="0 0 0 0 0 0 0 0 0 0 0 0 0 0 0 0 0 0 127 0" result="hardAlpha"/>
<feOffset dx="3"/>
<feGaussianBlur stdDeviation="2"/>
<feComposite in2="hardAlpha" operator="out"/>
<feColorMatrix type="matrix" values="0 0 0 0 0.00283333 0 0 0 0 0 0 0 0 0 0.141667 0 0 0 0.12 0"/>
<feBlend mode="normal" in2="BackgroundImageFix" result="effect1_dropShadow_154_1130"/>
<feBlend mode="normal" in="SourceGraphic" in2="effect1_dropShadow_154_1130" result="shape"/>
</filter>
</defs>
</svg>
