<svg xmlns="http://www.w3.org/2000/svg" xmlns:xlink="http://www.w3.org/1999/xlink" width="160" zoomAndPan="magnify" viewBox="0 0 120 30.000001" height="40" preserveAspectRatio="xMidYMid meet" version="1.0"><defs><g/></defs><g fill="#000000" fill-opacity="1"><g transform="translate(7.429727, 24.02927)"><g><path d="M 9.140625 -17.984375 C 9.140625 -17.585938 9.015625 -17.242188 8.765625 -16.953125 C 8.523438 -16.671875 8.234375 -16.4375 7.890625 -16.25 C 7.578125 -16.0625 7.257812 -15.859375 6.9375 -15.640625 C 6.613281 -15.429688 6.316406 -15.191406 6.046875 -14.921875 C 5.773438 -14.660156 5.550781 -14.363281 5.375 -14.03125 C 5.207031 -13.707031 5.125 -13.34375 5.125 -12.9375 C 5.125 -12.582031 5.207031 -12.257812 5.375 -11.96875 C 5.550781 -11.675781 5.757812 -11.390625 6 -11.109375 C 6.25 -10.828125 6.523438 -10.535156 6.828125 -10.234375 C 7.128906 -9.929688 7.398438 -9.597656 7.640625 -9.234375 C 7.890625 -8.867188 8.097656 -8.453125 8.265625 -7.984375 C 8.441406 -7.523438 8.53125 -6.988281 8.53125 -6.375 C 8.53125 -5.945312 8.441406 -5.460938 8.265625 -4.921875 C 8.085938 -4.390625 7.84375 -3.847656 7.53125 -3.296875 C 7.226562 -2.753906 6.863281 -2.226562 6.4375 -1.71875 C 6.019531 -1.207031 5.578125 -0.75 5.109375 -0.34375 C 4.640625 0.0507812 4.148438 0.375 3.640625 0.625 C 3.128906 0.875 2.632812 1 2.15625 1 C 1.625 1 1.148438 0.851562 0.734375 0.5625 C 0.328125 0.269531 0.125 -0.164062 0.125 -0.75 C 0.125 -1.132812 0.21875 -1.492188 0.40625 -1.828125 C 0.59375 -2.160156 0.820312 -2.476562 1.09375 -2.78125 C 1.375 -3.09375 1.679688 -3.394531 2.015625 -3.6875 C 2.347656 -3.976562 2.648438 -4.269531 2.921875 -4.5625 C 3.191406 -4.851562 3.421875 -5.15625 3.609375 -5.46875 C 3.796875 -5.78125 3.890625 -6.117188 3.890625 -6.484375 C 3.890625 -6.972656 3.710938 -7.476562 3.359375 -8 C 3.015625 -8.519531 2.628906 -9.054688 2.203125 -9.609375 C 1.773438 -10.171875 1.382812 -10.738281 1.03125 -11.3125 C 0.6875 -11.894531 0.515625 -12.488281 0.515625 -13.09375 C 0.515625 -13.820312 0.707031 -14.59375 1.09375 -15.40625 C 1.488281 -16.21875 1.992188 -16.960938 2.609375 -17.640625 C 3.222656 -18.316406 3.914062 -18.875 4.6875 -19.3125 C 5.457031 -19.757812 6.21875 -19.984375 6.96875 -19.984375 C 7.5625 -19.984375 8.070312 -19.800781 8.5 -19.4375 C 8.925781 -19.082031 9.140625 -18.597656 9.140625 -17.984375 Z M 9.140625 -17.984375 "/></g></g></g><g fill="#000000" fill-opacity="1"><g transform="translate(16.70283, 24.02927)"><g><path d="M 11.859375 -17.5 C 11.859375 -17.070312 11.691406 -16.679688 11.359375 -16.328125 C 11.023438 -15.984375 10.625 -15.675781 10.15625 -15.40625 C 9.6875 -15.144531 9.203125 -14.925781 8.703125 -14.75 C 8.210938 -14.582031 7.804688 -14.460938 7.484375 -14.390625 C 7.347656 -13.078125 7.238281 -11.765625 7.15625 -10.453125 C 7.082031 -9.148438 7.046875 -7.84375 7.046875 -6.53125 C 7.046875 -5.832031 7.0625 -5.140625 7.09375 -4.453125 C 7.125 -3.773438 7.140625 -3.09375 7.140625 -2.40625 C 7.140625 -2.101562 7.109375 -1.765625 7.046875 -1.390625 C 6.992188 -1.023438 6.894531 -0.679688 6.75 -0.359375 C 6.601562 -0.0351562 6.398438 0.234375 6.140625 0.453125 C 5.890625 0.679688 5.578125 0.796875 5.203125 0.796875 C 4.753906 0.796875 4.394531 0.671875 4.125 0.421875 C 3.863281 0.171875 3.660156 -0.128906 3.515625 -0.484375 C 3.378906 -0.847656 3.285156 -1.226562 3.234375 -1.625 C 3.179688 -2.03125 3.15625 -2.394531 3.15625 -2.71875 C 3.113281 -3.738281 3.082031 -4.765625 3.0625 -5.796875 C 3.050781 -6.835938 3.046875 -7.878906 3.046875 -8.921875 C 3.046875 -9.785156 3.050781 -10.632812 3.0625 -11.46875 C 3.070312 -12.3125 3.078125 -13.171875 3.078125 -14.046875 C 2.835938 -14.003906 2.59375 -13.972656 2.34375 -13.953125 C 2.09375 -13.941406 1.84375 -13.9375 1.59375 -13.9375 C 1.382812 -13.9375 1.113281 -13.957031 0.78125 -14 C 0.445312 -14.039062 0.128906 -14.113281 -0.171875 -14.21875 C -0.484375 -14.332031 -0.75 -14.488281 -0.96875 -14.6875 C -1.195312 -14.882812 -1.3125 -15.140625 -1.3125 -15.453125 C -1.3125 -15.960938 -1.109375 -16.410156 -0.703125 -16.796875 C -0.304688 -17.179688 0.203125 -17.515625 0.828125 -17.796875 C 1.453125 -18.078125 2.144531 -18.316406 2.90625 -18.515625 C 3.664062 -18.710938 4.414062 -18.863281 5.15625 -18.96875 C 5.90625 -19.082031 6.585938 -19.164062 7.203125 -19.21875 C 7.828125 -19.269531 8.3125 -19.296875 8.65625 -19.296875 C 8.976562 -19.296875 9.320312 -19.28125 9.6875 -19.25 C 10.0625 -19.226562 10.410156 -19.15625 10.734375 -19.03125 C 11.054688 -18.914062 11.320312 -18.738281 11.53125 -18.5 C 11.75 -18.257812 11.859375 -17.925781 11.859375 -17.5 Z M 11.859375 -17.5 "/></g></g></g><g fill="#000000" fill-opacity="1"><g transform="translate(26.462643, 24.02927)"><g><path d="M 9.640625 -17.390625 C 9.640625 -17.066406 9.566406 -16.773438 9.421875 -16.515625 C 9.273438 -16.265625 9.082031 -16.050781 8.84375 -15.875 C 8.601562 -15.695312 8.335938 -15.546875 8.046875 -15.421875 C 7.753906 -15.304688 7.472656 -15.222656 7.203125 -15.171875 C 7.160156 -13.234375 7.082031 -11.367188 6.96875 -9.578125 C 6.863281 -7.785156 6.691406 -5.929688 6.453125 -4.015625 L 6.609375 -4.015625 C 6.878906 -4.015625 7.144531 -3.984375 7.40625 -3.921875 C 7.675781 -3.867188 7.914062 -3.769531 8.125 -3.625 C 8.34375 -3.476562 8.515625 -3.296875 8.640625 -3.078125 C 8.773438 -2.867188 8.84375 -2.613281 8.84375 -2.3125 C 8.84375 -1.914062 8.71875 -1.570312 8.46875 -1.28125 C 8.21875 -0.988281 7.890625 -0.738281 7.484375 -0.53125 C 7.085938 -0.332031 6.640625 -0.164062 6.140625 -0.03125 C 5.648438 0.101562 5.15625 0.207031 4.65625 0.28125 C 4.164062 0.363281 3.695312 0.421875 3.25 0.453125 C 2.8125 0.492188 2.453125 0.515625 2.171875 0.515625 C 1.972656 0.515625 1.722656 0.503906 1.421875 0.484375 C 1.117188 0.472656 0.832031 0.421875 0.5625 0.328125 C 0.300781 0.242188 0.078125 0.117188 -0.109375 -0.046875 C -0.296875 -0.222656 -0.390625 -0.457031 -0.390625 -0.75 C -0.390625 -1.101562 -0.316406 -1.421875 -0.171875 -1.703125 C -0.0234375 -1.984375 0.164062 -2.234375 0.40625 -2.453125 C 0.644531 -2.679688 0.914062 -2.863281 1.21875 -3 C 1.519531 -3.132812 1.820312 -3.238281 2.125 -3.3125 C 2.25 -4.25 2.359375 -5.179688 2.453125 -6.109375 C 2.554688 -7.035156 2.628906 -7.976562 2.671875 -8.9375 C 2.703125 -9.914062 2.734375 -10.878906 2.765625 -11.828125 C 2.796875 -12.773438 2.832031 -13.726562 2.875 -14.6875 C 2.75 -14.664062 2.632812 -14.648438 2.53125 -14.640625 C 2.425781 -14.628906 2.332031 -14.625 2.25 -14.625 C 2.007812 -14.625 1.753906 -14.648438 1.484375 -14.703125 C 1.210938 -14.753906 0.957031 -14.84375 0.71875 -14.96875 C 0.476562 -15.101562 0.273438 -15.265625 0.109375 -15.453125 C -0.046875 -15.640625 -0.125 -15.878906 -0.125 -16.171875 C -0.125 -16.742188 0.113281 -17.21875 0.59375 -17.59375 C 1.082031 -17.976562 1.664062 -18.269531 2.34375 -18.46875 C 3.019531 -18.675781 3.707031 -18.816406 4.40625 -18.890625 C 5.101562 -18.972656 5.664062 -19.015625 6.09375 -19.015625 C 6.332031 -19.015625 6.648438 -18.992188 7.046875 -18.953125 C 7.441406 -18.921875 7.828125 -18.84375 8.203125 -18.71875 C 8.585938 -18.601562 8.921875 -18.441406 9.203125 -18.234375 C 9.492188 -18.035156 9.640625 -17.753906 9.640625 -17.390625 Z M 9.640625 -17.390625 "/></g></g></g><g fill="#000000" fill-opacity="1"><g transform="translate(35.684514, 24.02927)"><g><path d="M 12.09375 -13.046875 C 12.09375 -12.710938 12.050781 -12.367188 11.96875 -12.015625 C 11.894531 -11.660156 11.769531 -11.328125 11.59375 -11.015625 C 11.425781 -10.710938 11.207031 -10.457031 10.9375 -10.25 C 10.664062 -10.039062 10.332031 -9.9375 9.9375 -9.9375 C 9.34375 -9.9375 8.898438 -10.039062 8.609375 -10.25 C 8.316406 -10.46875 8.109375 -10.738281 7.984375 -11.0625 C 7.867188 -11.382812 7.804688 -11.726562 7.796875 -12.09375 C 7.785156 -12.46875 7.769531 -12.816406 7.75 -13.140625 C 7.738281 -13.460938 7.6875 -13.726562 7.59375 -13.9375 C 7.5 -14.15625 7.300781 -14.265625 7 -14.265625 C 6.65625 -14.265625 6.351562 -14.140625 6.09375 -13.890625 C 5.84375 -13.648438 5.625 -13.332031 5.4375 -12.9375 C 5.25 -12.539062 5.085938 -12.09375 4.953125 -11.59375 C 4.828125 -11.101562 4.722656 -10.613281 4.640625 -10.125 C 4.566406 -9.644531 4.515625 -9.1875 4.484375 -8.75 C 4.453125 -8.3125 4.4375 -7.957031 4.4375 -7.6875 C 4.4375 -7.320312 4.445312 -6.890625 4.46875 -6.390625 C 4.5 -5.898438 4.582031 -5.425781 4.71875 -4.96875 C 4.851562 -4.519531 5.054688 -4.140625 5.328125 -3.828125 C 5.597656 -3.515625 5.988281 -3.359375 6.5 -3.359375 C 6.84375 -3.359375 7.175781 -3.398438 7.5 -3.484375 C 7.832031 -3.566406 8.160156 -3.664062 8.484375 -3.78125 C 8.804688 -3.894531 9.132812 -3.992188 9.46875 -4.078125 C 9.800781 -4.160156 10.140625 -4.203125 10.484375 -4.203125 C 10.867188 -4.203125 11.191406 -4.039062 11.453125 -3.71875 C 11.710938 -3.40625 11.84375 -3.054688 11.84375 -2.671875 C 11.84375 -2.117188 11.671875 -1.609375 11.328125 -1.140625 C 10.984375 -0.671875 10.554688 -0.257812 10.046875 0.09375 C 9.546875 0.457031 9 0.738281 8.40625 0.9375 C 7.820312 1.144531 7.289062 1.25 6.8125 1.25 C 5.582031 1.25 4.539062 0.972656 3.6875 0.421875 C 2.832031 -0.128906 2.140625 -0.84375 1.609375 -1.71875 C 1.078125 -2.601562 0.695312 -3.585938 0.46875 -4.671875 C 0.238281 -5.753906 0.125 -6.835938 0.125 -7.921875 C 0.125 -8.640625 0.191406 -9.421875 0.328125 -10.265625 C 0.460938 -11.117188 0.664062 -11.976562 0.9375 -12.84375 C 1.21875 -13.707031 1.566406 -14.539062 1.984375 -15.34375 C 2.398438 -16.144531 2.890625 -16.851562 3.453125 -17.46875 C 4.015625 -18.082031 4.648438 -18.578125 5.359375 -18.953125 C 6.078125 -19.328125 6.863281 -19.515625 7.71875 -19.515625 C 8.550781 -19.515625 9.25 -19.304688 9.8125 -18.890625 C 10.375 -18.472656 10.828125 -17.941406 11.171875 -17.296875 C 11.515625 -16.660156 11.753906 -15.960938 11.890625 -15.203125 C 12.023438 -14.441406 12.09375 -13.722656 12.09375 -13.046875 Z M 12.09375 -13.046875 "/></g></g></g><g fill="#000000" fill-opacity="1"><g transform="translate(48.031574, 24.02927)"><g><path d="M 13.625 -1.125 C 13.625 -0.644531 13.503906 -0.257812 13.265625 0.03125 C 13.023438 0.332031 12.660156 0.484375 12.171875 0.484375 C 11.773438 0.484375 11.410156 0.363281 11.078125 0.125 C 10.742188 -0.113281 10.4375 -0.40625 10.15625 -0.75 C 9.875 -1.101562 9.625 -1.472656 9.40625 -1.859375 C 9.195312 -2.253906 9.023438 -2.597656 8.890625 -2.890625 C 8.535156 -3.609375 8.179688 -4.328125 7.828125 -5.046875 C 7.472656 -5.765625 7.128906 -6.488281 6.796875 -7.21875 L 5.25 -6.28125 C 5.269531 -5.78125 5.242188 -5.28125 5.171875 -4.78125 C 5.109375 -4.289062 5.054688 -3.800781 5.015625 -3.3125 C 4.984375 -2.96875 4.925781 -2.59375 4.84375 -2.1875 C 4.769531 -1.789062 4.648438 -1.414062 4.484375 -1.0625 C 4.316406 -0.707031 4.085938 -0.410156 3.796875 -0.171875 C 3.503906 0.0546875 3.144531 0.171875 2.71875 0.171875 C 2.320312 0.171875 1.992188 0.09375 1.734375 -0.0625 C 1.484375 -0.226562 1.273438 -0.4375 1.109375 -0.6875 C 0.953125 -0.945312 0.835938 -1.238281 0.765625 -1.5625 C 0.703125 -1.882812 0.671875 -2.21875 0.671875 -2.5625 L 0.671875 -2.765625 C 0.671875 -3.773438 0.722656 -4.785156 0.828125 -5.796875 C 0.941406 -6.816406 1.015625 -7.835938 1.046875 -8.859375 C 1.085938 -10.210938 1.128906 -11.5625 1.171875 -12.90625 C 1.222656 -14.257812 1.296875 -15.609375 1.390625 -16.953125 C 1.398438 -17.265625 1.445312 -17.566406 1.53125 -17.859375 C 1.625 -18.148438 1.753906 -18.410156 1.921875 -18.640625 C 2.085938 -18.867188 2.296875 -19.050781 2.546875 -19.1875 C 2.796875 -19.320312 3.09375 -19.390625 3.4375 -19.390625 C 3.96875 -19.390625 4.363281 -19.203125 4.625 -18.828125 C 4.882812 -18.453125 5.066406 -18 5.171875 -17.46875 C 5.273438 -16.9375 5.320312 -16.390625 5.3125 -15.828125 C 5.300781 -15.265625 5.296875 -14.796875 5.296875 -14.421875 C 5.296875 -13.347656 5.269531 -12.273438 5.21875 -11.203125 C 5.71875 -11.609375 6.203125 -12.078125 6.671875 -12.609375 C 7.140625 -13.140625 7.554688 -13.675781 7.921875 -14.21875 C 8.140625 -14.539062 8.394531 -14.988281 8.6875 -15.5625 C 8.976562 -16.132812 9.289062 -16.6875 9.625 -17.21875 C 9.96875 -17.757812 10.34375 -18.226562 10.75 -18.625 C 11.164062 -19.03125 11.601562 -19.234375 12.0625 -19.234375 C 12.5625 -19.234375 12.925781 -19.09375 13.15625 -18.8125 C 13.382812 -18.53125 13.5 -18.160156 13.5 -17.703125 C 13.5 -17.015625 13.390625 -16.3125 13.171875 -15.59375 C 12.960938 -14.882812 12.675781 -14.179688 12.3125 -13.484375 C 11.957031 -12.796875 11.550781 -12.140625 11.09375 -11.515625 C 10.644531 -10.890625 10.191406 -10.347656 9.734375 -9.890625 C 10.210938 -9.085938 10.664062 -8.28125 11.09375 -7.46875 C 11.519531 -6.65625 11.945312 -5.835938 12.375 -5.015625 C 12.53125 -4.742188 12.679688 -4.445312 12.828125 -4.125 C 12.972656 -3.800781 13.101562 -3.46875 13.21875 -3.125 C 13.34375 -2.78125 13.441406 -2.4375 13.515625 -2.09375 C 13.585938 -1.757812 13.625 -1.4375 13.625 -1.125 Z M 13.625 -1.125 "/></g></g></g><g fill="#000000" fill-opacity="1"><g transform="translate(61.813147, 24.02927)"><g><path d="M 18.296875 -2.796875 C 18.242188 -2.347656 18.171875 -1.910156 18.078125 -1.484375 C 17.984375 -1.054688 17.867188 -0.675781 17.734375 -0.34375 C 17.597656 -0.0078125 17.421875 0.253906 17.203125 0.453125 C 16.992188 0.648438 16.75 0.75 16.46875 0.75 C 16.195312 0.75 15.945312 0.535156 15.71875 0.109375 C 15.5 -0.304688 15.289062 -0.859375 15.09375 -1.546875 C 14.90625 -2.242188 14.726562 -3.023438 14.5625 -3.890625 C 14.40625 -4.765625 14.257812 -5.648438 14.125 -6.546875 C 14 -7.441406 13.894531 -8.316406 13.8125 -9.171875 C 13.726562 -10.023438 13.660156 -10.769531 13.609375 -11.40625 C 13.503906 -10.75 13.382812 -10.019531 13.25 -9.21875 C 13.113281 -8.414062 12.953125 -7.597656 12.765625 -6.765625 C 12.578125 -5.941406 12.367188 -5.132812 12.140625 -4.34375 C 11.921875 -3.550781 11.679688 -2.84375 11.421875 -2.21875 C 11.171875 -1.59375 10.898438 -1.09375 10.609375 -0.71875 C 10.316406 -0.34375 10.007812 -0.15625 9.6875 -0.15625 C 9.394531 -0.15625 9.101562 -0.347656 8.8125 -0.734375 C 8.519531 -1.128906 8.238281 -1.644531 7.96875 -2.28125 C 7.695312 -2.925781 7.441406 -3.640625 7.203125 -4.421875 C 6.960938 -5.210938 6.738281 -6.003906 6.53125 -6.796875 C 6.320312 -7.597656 6.140625 -8.351562 5.984375 -9.0625 C 5.835938 -9.769531 5.722656 -10.363281 5.640625 -10.84375 C 5.640625 -10.476562 5.632812 -10.078125 5.625 -9.640625 C 5.613281 -9.210938 5.609375 -8.898438 5.609375 -8.703125 C 5.609375 -8.617188 5.601562 -8.335938 5.59375 -7.859375 C 5.582031 -7.378906 5.550781 -6.804688 5.5 -6.140625 C 5.457031 -5.484375 5.382812 -4.773438 5.28125 -4.015625 C 5.175781 -3.253906 5.023438 -2.546875 4.828125 -1.890625 C 4.628906 -1.242188 4.382812 -0.695312 4.09375 -0.25 C 3.800781 0.1875 3.441406 0.425781 3.015625 0.46875 C 2.679688 0.3125 2.394531 0.0507812 2.15625 -0.3125 C 1.925781 -0.6875 1.734375 -1.117188 1.578125 -1.609375 C 1.429688 -2.109375 1.316406 -2.640625 1.234375 -3.203125 C 1.148438 -3.765625 1.082031 -4.3125 1.03125 -4.84375 C 0.976562 -5.382812 0.945312 -5.882812 0.9375 -6.34375 C 0.925781 -6.8125 0.921875 -7.191406 0.921875 -7.484375 C 0.921875 -7.992188 0.953125 -8.632812 1.015625 -9.40625 C 1.078125 -10.1875 1.175781 -11.003906 1.3125 -11.859375 C 1.445312 -12.710938 1.625 -13.566406 1.84375 -14.421875 C 2.0625 -15.273438 2.328125 -16.039062 2.640625 -16.71875 C 2.960938 -17.394531 3.332031 -17.945312 3.75 -18.375 C 4.164062 -18.800781 4.648438 -19.015625 5.203125 -19.015625 C 5.453125 -19.015625 5.722656 -18.867188 6.015625 -18.578125 C 6.304688 -18.285156 6.597656 -17.90625 6.890625 -17.4375 C 7.179688 -16.96875 7.460938 -16.441406 7.734375 -15.859375 C 8.003906 -15.273438 8.265625 -14.6875 8.515625 -14.09375 C 8.765625 -13.507812 8.984375 -12.945312 9.171875 -12.40625 C 9.359375 -11.875 9.515625 -11.421875 9.640625 -11.046875 C 9.773438 -11.453125 9.941406 -11.925781 10.140625 -12.46875 C 10.347656 -13.019531 10.578125 -13.585938 10.828125 -14.171875 C 11.078125 -14.765625 11.347656 -15.347656 11.640625 -15.921875 C 11.941406 -16.492188 12.253906 -17.003906 12.578125 -17.453125 C 12.898438 -17.910156 13.226562 -18.28125 13.5625 -18.5625 C 13.894531 -18.84375 14.234375 -18.984375 14.578125 -18.984375 C 15.171875 -18.984375 15.679688 -18.757812 16.109375 -18.3125 C 16.535156 -17.875 16.894531 -17.300781 17.1875 -16.59375 C 17.476562 -15.882812 17.707031 -15.085938 17.875 -14.203125 C 18.050781 -13.328125 18.1875 -12.457031 18.28125 -11.59375 C 18.375 -10.726562 18.429688 -9.921875 18.453125 -9.171875 C 18.484375 -8.421875 18.5 -7.816406 18.5 -7.359375 C 18.5 -7.171875 18.5 -6.910156 18.5 -6.578125 C 18.5 -6.253906 18.492188 -5.890625 18.484375 -5.484375 C 18.472656 -5.078125 18.453125 -4.640625 18.421875 -4.171875 C 18.390625 -3.710938 18.347656 -3.253906 18.296875 -2.796875 Z M 18.296875 -2.796875 "/></g></g></g><g fill="#000000" fill-opacity="1"><g transform="translate(81.35839, 24.02927)"><g><path d="M 13.703125 -3.796875 C 13.703125 -3.453125 13.671875 -3.039062 13.609375 -2.5625 C 13.554688 -2.082031 13.441406 -1.625 13.265625 -1.1875 C 13.097656 -0.75 12.867188 -0.378906 12.578125 -0.078125 C 12.285156 0.210938 11.898438 0.359375 11.421875 0.359375 C 10.796875 0.359375 10.320312 0.128906 10 -0.328125 C 9.6875 -0.796875 9.460938 -1.347656 9.328125 -1.984375 C 9.191406 -2.628906 9.109375 -3.28125 9.078125 -3.9375 C 9.054688 -4.601562 9.035156 -5.132812 9.015625 -5.53125 C 7.785156 -5.320312 6.570312 -5.144531 5.375 -5 C 5.34375 -4.601562 5.269531 -4.113281 5.15625 -3.53125 C 5.050781 -2.957031 4.878906 -2.398438 4.640625 -1.859375 C 4.410156 -1.316406 4.113281 -0.847656 3.75 -0.453125 C 3.382812 -0.0664062 2.9375 0.125 2.40625 0.125 C 2 0.125 1.679688 -0.0195312 1.453125 -0.3125 C 1.222656 -0.613281 1.046875 -0.96875 0.921875 -1.375 C 0.804688 -1.789062 0.734375 -2.21875 0.703125 -2.65625 C 0.679688 -3.09375 0.671875 -3.453125 0.671875 -3.734375 C 0.671875 -4.710938 0.742188 -5.675781 0.890625 -6.625 C 1.046875 -7.570312 1.226562 -8.515625 1.4375 -9.453125 C 1.539062 -9.953125 1.675781 -10.53125 1.84375 -11.1875 C 2.007812 -11.851562 2.21875 -12.539062 2.46875 -13.25 C 2.71875 -13.96875 3.007812 -14.671875 3.34375 -15.359375 C 3.675781 -16.046875 4.054688 -16.660156 4.484375 -17.203125 C 4.910156 -17.753906 5.394531 -18.203125 5.9375 -18.546875 C 6.488281 -18.890625 7.097656 -19.0625 7.765625 -19.0625 C 8.410156 -19.0625 8.972656 -18.914062 9.453125 -18.625 C 9.929688 -18.332031 10.347656 -17.945312 10.703125 -17.46875 C 11.066406 -16.988281 11.367188 -16.445312 11.609375 -15.84375 C 11.847656 -15.238281 12.046875 -14.625 12.203125 -14 C 12.367188 -13.375 12.503906 -12.757812 12.609375 -12.15625 C 12.722656 -11.5625 12.820312 -11.035156 12.90625 -10.578125 C 13.132812 -9.472656 13.320312 -8.351562 13.46875 -7.21875 C 13.625 -6.082031 13.703125 -4.941406 13.703125 -3.796875 Z M 8.765625 -10.015625 C 8.765625 -10.222656 8.75 -10.5625 8.71875 -11.03125 C 8.695312 -11.5 8.640625 -11.96875 8.546875 -12.4375 C 8.460938 -12.90625 8.332031 -13.320312 8.15625 -13.6875 C 7.976562 -14.0625 7.734375 -14.25 7.421875 -14.25 C 7.253906 -14.25 7.09375 -14.128906 6.9375 -13.890625 C 6.789062 -13.660156 6.65625 -13.367188 6.53125 -13.015625 C 6.414062 -12.671875 6.3125 -12.285156 6.21875 -11.859375 C 6.125 -11.429688 6.039062 -11.019531 5.96875 -10.625 C 5.894531 -10.238281 5.84375 -9.882812 5.8125 -9.5625 C 5.78125 -9.25 5.753906 -9.023438 5.734375 -8.890625 C 6.765625 -8.972656 7.773438 -9.101562 8.765625 -9.28125 Z M 8.765625 -10.015625 "/></g></g></g><g fill="#000000" fill-opacity="1"><g transform="translate(95.959685, 24.02927)"><g><path d="M 15.671875 -10.984375 C 15.671875 -10.609375 15.65625 -10.078125 15.625 -9.390625 C 15.59375 -8.703125 15.53125 -7.941406 15.4375 -7.109375 C 15.34375 -6.273438 15.207031 -5.425781 15.03125 -4.5625 C 14.863281 -3.707031 14.644531 -2.925781 14.375 -2.21875 C 14.101562 -1.519531 13.769531 -0.945312 13.375 -0.5 C 12.976562 -0.0507812 12.507812 0.171875 11.96875 0.171875 C 11.457031 0.171875 10.988281 0.0234375 10.5625 -0.265625 C 10.132812 -0.566406 9.75 -0.9375 9.40625 -1.375 C 9.0625 -1.8125 8.757812 -2.273438 8.5 -2.765625 C 8.25 -3.265625 8.035156 -3.71875 7.859375 -4.125 C 7.503906 -5 7.144531 -5.859375 6.78125 -6.703125 C 6.425781 -7.546875 6.085938 -8.40625 5.765625 -9.28125 L 5.765625 -8.5625 C 5.765625 -7.820312 5.757812 -7.085938 5.75 -6.359375 C 5.738281 -5.640625 5.679688 -4.921875 5.578125 -4.203125 C 5.546875 -3.910156 5.507812 -3.570312 5.46875 -3.1875 C 5.425781 -2.800781 5.363281 -2.421875 5.28125 -2.046875 C 5.195312 -1.671875 5.070312 -1.320312 4.90625 -1 C 4.738281 -0.675781 4.519531 -0.4375 4.25 -0.28125 C 4.09375 -0.195312 3.953125 -0.144531 3.828125 -0.125 C 3.703125 -0.113281 3.5625 -0.0859375 3.40625 -0.046875 L 3.328125 -0.046875 C 2.929688 -0.046875 2.597656 -0.175781 2.328125 -0.4375 C 2.054688 -0.707031 1.828125 -1.050781 1.640625 -1.46875 C 1.453125 -1.882812 1.300781 -2.351562 1.1875 -2.875 C 1.082031 -3.394531 1 -3.90625 0.9375 -4.40625 C 0.875 -4.914062 0.832031 -5.382812 0.8125 -5.8125 C 0.800781 -6.238281 0.796875 -6.582031 0.796875 -6.84375 C 0.796875 -7.226562 0.8125 -7.800781 0.84375 -8.5625 C 0.875 -9.320312 0.945312 -10.164062 1.0625 -11.09375 C 1.175781 -12.019531 1.320312 -12.96875 1.5 -13.9375 C 1.675781 -14.90625 1.910156 -15.785156 2.203125 -16.578125 C 2.492188 -17.378906 2.84375 -18.03125 3.25 -18.53125 C 3.664062 -19.039062 4.144531 -19.296875 4.6875 -19.296875 C 5.21875 -19.296875 5.691406 -19.085938 6.109375 -18.671875 C 6.523438 -18.265625 6.894531 -17.78125 7.21875 -17.21875 C 7.550781 -16.65625 7.828125 -16.066406 8.046875 -15.453125 C 8.265625 -14.835938 8.453125 -14.320312 8.609375 -13.90625 C 8.898438 -13.101562 9.179688 -12.304688 9.453125 -11.515625 C 9.722656 -10.722656 9.988281 -9.914062 10.25 -9.09375 C 10.257812 -9.0625 10.289062 -8.96875 10.34375 -8.8125 C 10.394531 -8.65625 10.457031 -8.484375 10.53125 -8.296875 C 10.59375 -8.097656 10.675781 -7.867188 10.78125 -7.609375 C 10.78125 -7.828125 10.773438 -7.984375 10.765625 -8.078125 C 10.765625 -8.171875 10.765625 -8.253906 10.765625 -8.328125 C 10.765625 -8.410156 10.765625 -8.507812 10.765625 -8.625 C 10.765625 -8.75 10.765625 -8.941406 10.765625 -9.203125 C 10.742188 -9.765625 10.726562 -10.328125 10.71875 -10.890625 C 10.707031 -11.453125 10.703125 -12.003906 10.703125 -12.546875 C 10.703125 -12.785156 10.707031 -13.117188 10.71875 -13.546875 C 10.726562 -13.972656 10.753906 -14.429688 10.796875 -14.921875 C 10.835938 -15.410156 10.898438 -15.898438 10.984375 -16.390625 C 11.078125 -16.890625 11.203125 -17.335938 11.359375 -17.734375 C 11.523438 -18.140625 11.726562 -18.46875 11.96875 -18.71875 C 12.21875 -18.976562 12.523438 -19.109375 12.890625 -19.109375 C 13.316406 -19.109375 13.679688 -18.945312 13.984375 -18.625 C 14.296875 -18.300781 14.550781 -17.882812 14.75 -17.375 C 14.957031 -16.875 15.117188 -16.3125 15.234375 -15.6875 C 15.359375 -15.0625 15.453125 -14.453125 15.515625 -13.859375 C 15.585938 -13.265625 15.628906 -12.707031 15.640625 -12.1875 C 15.660156 -11.675781 15.671875 -11.273438 15.671875 -10.984375 Z M 15.671875 -10.984375 "/></g></g></g></svg>