<svg width="20" height="20" viewBox="0 0 20 20" fill="none" xmlns="http://www.w3.org/2000/svg">
    <path fill-rule="evenodd" clip-rule="evenodd" d="M8.20746 2.90162C7.24977 3.39855 6.46266 3.81811 6.46566 3.83597C6.46566 3.8806 8.76712 5.03813 8.84792 5.03515C8.88384 5.03515 9.15319 4.91017 9.44648 4.76139L9.9792 4.49061L10.5598 4.78817L11.1404 5.08574L12.0921 4.66022C13.5227 4.02046 13.6723 3.94904 13.6484 3.92821C13.6184 3.89548 13.1037 3.62172 11.709 2.89269C11.0357 2.54157 10.3832 2.19342 10.2575 2.12498C10.1318 2.05356 10.0121 2 9.99117 2C9.97022 2 9.16516 2.40469 8.20746 2.90162ZM4.00259 5.06788L3.00299 5.57969V7.82927C3.00299 9.06714 3.01496 10.0789 3.03292 10.0789C3.04788 10.0789 3.5387 9.86758 4.12529 9.6087L5.18773 9.13855V6.76697L5.70549 7.04668C6.10652 7.2639 6.50456 7.47815 6.9056 7.69537L7.58796 8.06137L7.89023 7.92449C8.08177 7.8382 8.27031 7.7519 8.45886 7.66561C8.60551 7.59717 8.96464 7.43649 9.25794 7.30854C9.55123 7.18058 9.82058 7.04966 9.85949 7.0199C9.91037 6.98122 9.28786 6.63902 7.55803 5.75525C6.25317 5.08871 5.14284 4.54715 5.09196 4.55012C5.04109 4.5531 4.55027 4.7852 4.00259 5.06788ZM13.8249 5.21071C13.1456 5.5172 12.5889 5.77906 12.5889 5.79394C12.5889 5.80882 12.96 6.02901 13.4119 6.28194C13.8668 6.53487 14.235 6.75507 14.235 6.77292C14.235 6.79077 13.8339 6.98419 13.3431 7.20141C12.8523 7.42161 11.6133 7.97805 10.5867 8.43928L7.154 9.98363C6.28908 10.3705 5.51096 10.7216 5.42416 10.7603C3.66141 11.5548 3.17358 11.775 3.10774 11.8137C3.0419 11.8523 3.02694 12.0725 3.01496 13.1824L3 14.5066L3.89185 14.9589L4.78371 15.4112L6.02272 14.8548C6.70209 14.5483 7.26174 14.2834 7.26174 14.2626C7.26174 14.2418 7.13604 14.1614 6.98341 14.0811C6.83078 14.0007 6.51354 13.8222 6.27711 13.6853C6.04367 13.5484 5.81024 13.4235 5.75936 13.4056C5.70848 13.3878 5.66658 13.361 5.66658 13.3402C5.66658 13.3223 6.21127 13.0634 6.87866 12.7688C8.17155 12.1945 9.15917 11.7512 11.2811 10.796C12.2298 10.3705 13.1785 9.94197 14.1302 9.51646C14.9652 9.14153 15.9349 8.70411 16.285 8.54342L16.9225 8.25181L16.9374 6.91278L16.9524 5.57374L16.0486 5.11549C15.5518 4.86256 15.1238 4.65427 15.1029 4.65427C15.0789 4.65427 14.5043 4.9072 13.8249 5.21071ZM16.6831 10.0431C16.5484 10.1086 16.285 10.2306 16.0965 10.3139C15.9079 10.3972 15.5488 10.5579 15.3004 10.671L14.8485 10.8763L14.8395 12.0517C14.8335 12.6974 14.8096 13.2241 14.7856 13.2211C14.7318 13.2122 13.8848 12.7807 13.0319 12.3255C12.4153 11.9981 12.3764 11.9833 12.2328 12.0547C12.149 12.0963 11.6492 12.3195 11.1224 12.5486C10.5957 12.7807 10.1468 12.9831 10.1258 13.0039C10.1049 13.0218 11.1643 13.5931 12.4842 14.2745L14.8784 15.5124L15.9019 14.9857C16.4646 14.697 16.9434 14.4322 16.9644 14.3995C17.0153 14.3251 17.0093 9.91519 16.9614 9.92115C16.9404 9.92412 16.8147 9.97768 16.6831 10.0431ZM11.0147 15.2178C10.8381 15.2922 10.6586 15.3695 10.482 15.4469C9.94628 15.676 10.051 15.685 9.41356 15.3695C8.98858 15.1583 8.80602 15.0958 8.72522 15.1255C8.66536 15.1493 8.15359 15.3785 7.58496 15.6344C7.01932 15.8903 6.53449 16.1015 6.51055 16.1015C6.27113 16.1015 6.66917 16.3366 8.19549 17.1014L9.98518 18L10.7394 17.631C11.1524 17.4287 11.9904 17.021 12.5949 16.7264C13.2024 16.4318 13.6903 16.1849 13.6813 16.173C13.6723 16.164 13.1635 15.9052 12.55 15.5957L11.4367 15.0363L11.0147 15.2178Z" fill="black"/>
</svg>
