<svg width="20" height="20" viewBox="0 0 20 20" fill="#000" xmlns="http://www.w3.org/2000/svg">
    <path d="M10.8567 1.66669C11.7942 1.66919 12.2701 1.67419 12.6809 1.68585L12.8426 1.69169C13.0292 1.69835 13.2134 1.70669 13.4359 1.71669C14.3226 1.75835 14.9276 1.89835 15.4584 2.10419C16.0084 2.31585 16.4717 2.60252 16.9351 3.06502C17.3588 3.4816 17.6867 3.98551 17.8959 4.54169C18.1017 5.07252 18.2417 5.67752 18.2834 6.56502C18.2934 6.78669 18.3017 6.97085 18.3084 7.15835L18.3134 7.32002C18.3259 7.73002 18.3309 8.20585 18.3326 9.14335L18.3334 9.76502V10.8567C18.3355 11.4645 18.3291 12.0724 18.3142 12.68L18.3092 12.8417C18.3026 13.0292 18.2942 13.2134 18.2842 13.435C18.2426 14.3225 18.1009 14.9267 17.8959 15.4584C17.6873 16.0148 17.3593 16.5189 16.9351 16.935C16.5184 17.3586 16.0145 17.6865 15.4584 17.8959C14.9276 18.1017 14.3226 18.2417 13.4359 18.2834C13.2382 18.2927 13.0404 18.301 12.8426 18.3084L12.6809 18.3134C12.2701 18.325 11.7942 18.3309 10.8567 18.3325L10.2351 18.3334H9.14424C8.53613 18.3355 7.92801 18.3291 7.32007 18.3142L7.15841 18.3092C6.96058 18.3017 6.7628 18.2931 6.56507 18.2834C5.67841 18.2417 5.07341 18.1017 4.54174 17.8959C3.98563 17.687 3.48192 17.3591 3.06591 16.935C2.64178 16.5186 2.31359 16.0147 2.10424 15.4584C1.89841 14.9275 1.75841 14.3225 1.71674 13.435C1.70746 13.2373 1.69912 13.0395 1.69174 12.8417L1.68757 12.68C1.67222 12.0724 1.66527 11.4645 1.66674 10.8567V9.14335C1.66441 8.53552 1.67053 7.92768 1.68507 7.32002L1.69091 7.15835C1.69757 6.97085 1.70591 6.78669 1.71591 6.56502C1.75757 5.67752 1.89757 5.07335 2.10341 4.54169C2.31267 3.98494 2.64151 3.48087 3.06674 3.06502C3.48265 2.64125 3.98603 2.31334 4.54174 2.10419C5.07341 1.89835 5.67757 1.75835 6.56507 1.71669C6.78674 1.70669 6.97174 1.69835 7.15841 1.69169L7.32007 1.68669C7.92773 1.67188 8.53557 1.66549 9.14341 1.66752L10.8567 1.66669ZM10.0001 5.83335C8.89501 5.83335 7.8352 6.27234 7.0538 7.05374C6.27239 7.83514 5.83341 8.89495 5.83341 10C5.83341 11.1051 6.27239 12.1649 7.0538 12.9463C7.8352 13.7277 8.89501 14.1667 10.0001 14.1667C11.1051 14.1667 12.165 13.7277 12.9464 12.9463C13.7278 12.1649 14.1667 11.1051 14.1667 10C14.1667 8.89495 13.7278 7.83514 12.9464 7.05374C12.165 6.27234 11.1051 5.83335 10.0001 5.83335ZM10.0001 7.50002C10.3284 7.49997 10.6535 7.56458 10.9568 7.69016C11.2601 7.81575 11.5358 7.99985 11.768 8.23196C12.0001 8.46407 12.1843 8.73963 12.31 9.04293C12.4357 9.34622 12.5004 9.6713 12.5005 9.9996C12.5005 10.3279 12.4359 10.653 12.3103 10.9563C12.1848 11.2597 12.0007 11.5353 11.7686 11.7675C11.5364 11.9997 11.2609 12.1839 10.9576 12.3096C10.6543 12.4352 10.3292 12.5 10.0009 12.5C9.33787 12.5 8.70198 12.2366 8.23314 11.7678C7.7643 11.2989 7.50091 10.6631 7.50091 10C7.50091 9.33698 7.7643 8.70109 8.23314 8.23225C8.70198 7.76341 9.33787 7.50002 10.0009 7.50002M14.3759 4.58335C14.0996 4.58335 13.8347 4.6931 13.6393 4.88845C13.444 5.0838 13.3342 5.34875 13.3342 5.62502C13.3342 5.90129 13.444 6.16624 13.6393 6.36159C13.8347 6.55694 14.0996 6.66669 14.3759 6.66669C14.6522 6.66669 14.9171 6.55694 15.1125 6.36159C15.3078 6.16624 15.4176 5.90129 15.4176 5.62502C15.4176 5.34875 15.3078 5.0838 15.1125 4.88845C14.9171 4.6931 14.6522 4.58335 14.3759 4.58335Z" fill="black"/>
</svg>
