<svg width="20" height="20" viewBox="0 0 20 20" fill="none" xmlns="http://www.w3.org/2000/svg">
    <path d="M18.3334 6.27917V14.1667C18.3335 14.8044 18.0898 15.4179 17.6523 15.8819C17.2149 16.3458 16.6167 16.6251 15.9801 16.6625L15.8334 16.6667H4.16675C3.52907 16.6667 2.91549 16.4231 2.45153 15.9856C1.98758 15.5481 1.70833 14.9499 1.67091 14.3133L1.66675 14.1667V6.27917L9.53758 11.5267L9.63425 11.5817C9.74817 11.6373 9.87329 11.6663 10.0001 11.6663C10.1269 11.6663 10.252 11.6373 10.3659 11.5817L10.4626 11.5267L18.3334 6.27917Z" fill="white"/>
    <path d="M15.8334 3.33331C16.7334 3.33331 17.5226 3.80831 17.9626 4.52248L10.0001 9.83081L2.0376 4.52248C2.24654 4.18312 2.53361 3.89865 2.87485 3.6928C3.2161 3.48695 3.60162 3.36569 3.99926 3.33915L4.16676 3.33331H15.8334Z" fill="white"/>
</svg>
