<svg width="20" height="20" viewBox="0 0 20 20" fill="none" xmlns="http://www.w3.org/2000/svg">
    <g clip-path="url(#clip0_41_87)">
        <path fill-rule="evenodd" clip-rule="evenodd" d="M16.3427 3.09578C16.5394 3.01097 16.7547 2.98172 16.9662 3.01107C17.1777 3.04043 17.3777 3.12731 17.5453 3.26267C17.7129 3.39804 17.842 3.57694 17.9192 3.78076C17.9964 3.98458 18.0188 4.20587 17.9842 4.42158L16.1787 15.6387C16.0035 16.7207 14.8445 17.3412 13.8757 16.8023C13.0653 16.3514 11.8616 15.6567 10.779 14.9318C10.2376 14.5689 8.57942 13.407 8.78321 12.5802C8.95834 11.8733 11.7446 9.21681 13.3367 7.63743C13.9616 7.01693 13.6766 6.65898 12.9387 7.22974C11.1061 8.64686 8.16387 10.8019 7.19107 11.4085C6.33291 11.9434 5.88552 12.0348 5.35056 11.9434C4.37458 11.7771 3.46945 11.5194 2.7307 11.2055C1.73243 10.7815 1.78099 9.37581 2.72991 8.96649L16.3427 3.09578Z" fill="black"/>
    </g>
    <defs>
        <clipPath id="clip0_41_87">
            <rect width="20" height="20" fill="white"/>
        </clipPath>
    </defs>
</svg>
